<svg width="36" height="36" viewBox="0 0 36 36" fill="none" xmlns="http://www.w3.org/2000/svg">
<g id="profile">
<circle id="profile_2" cx="18" cy="18" r="18" fill="#E8E8E8"/>
<path id="Vector" d="M15.1727 21.135H21.6378C22.4184 21.135 22.8106 20.7884 22.8106 20.102V16.0331C22.8106 15.3466 22.4184 15 21.6378 15H15.1727C14.3959 15 14 15.3432 14 16.0331V20.102C14 20.7918 14.3959 21.135 15.1727 21.135ZM16.8011 18.1491C16.2932 18.1491 15.8786 17.7793 15.8786 17.326C15.8786 16.8762 16.2932 16.5029 16.8011 16.5029C17.3054 16.5029 17.7199 16.8762 17.7199 17.326C17.7199 17.7793 17.3054 18.1491 16.8011 18.1491ZM15.1802 20.5985C14.8217 20.5985 14.6013 20.4052 14.6013 20.0786V19.8754L15.7479 18.9823C15.9122 18.8523 16.0915 18.7856 16.2596 18.7856C16.4389 18.7856 16.6293 18.8523 16.7937 18.9889L17.5108 19.5621L19.2923 18.1491C19.479 18.0025 19.6845 17.9359 19.8936 17.9359C20.099 17.9359 20.3119 18.0059 20.4912 18.1525L22.2092 19.5721V20.0853C22.2092 20.4052 21.9851 20.5985 21.6303 20.5985H15.1802Z" fill="#757575"/>
</g>
</svg>
